<svg xmlns="http://www.w3.org/2000/svg" viewBox="0 0 96 96" role="img" aria-label="KZ Arena">
  <defs>
    <linearGradient id="bg" x1="0" x2="1" y1="0" y2="1">
      <stop offset="0" stop-color="#d9e8f3"/>
      <stop offset="1" stop-color="#c7dbea"/>
    </linearGradient>
    <linearGradient id="blueEdge" x1="0" x2="1" y1="0" y2="1">
      <stop offset="0" stop-color="#002d8f"/>
      <stop offset="0.55" stop-color="#0b7cf2"/>
      <stop offset="1" stop-color="#5dd6ff"/>
    </linearGradient>
    <linearGradient id="starLight" x1="0" x2="1" y1="0" y2="1">
      <stop offset="0" stop-color="#ffffff"/>
      <stop offset="1" stop-color="#bde7ff"/>
    </linearGradient>
    <linearGradient id="swooshLight" x1="0" x2="1" y1="0" y2="0">
      <stop offset="0" stop-color="#f9feff"/>
      <stop offset="0.45" stop-color="#cfeeff"/>
      <stop offset="1" stop-color="#6fc6ff"/>
    </linearGradient>
    <filter id="shadow" x="-30%" y="-30%" width="160%" height="160%">
      <feDropShadow dx="0" dy="5" stdDeviation="4" flood-color="#0c3b73" flood-opacity="0.18"/>
    </filter>
  </defs>

  <rect width="96" height="96" rx="24" fill="url(#bg)"/>

  <g transform="translate(7 6)" filter="url(#shadow)">
    <path
      d="M41 3 51 31l31-4-23 21 11 31-27-18-27 18 11-31L4 27l31 4Z"
      fill="url(#blueEdge)"
    />
    <path
      d="M41 7 49 33l28-3-21 19 10 26-23-16-23 16 10-26L9 30l28 3Z"
      fill="url(#starLight)"
    />
    <path
      d="M12 40c9-12 24-18 41-17 13 1 21 4 27 7-8 1-19 3-30 8-15 6-27 15-44 28-7-6-8-18 6-26Z"
      fill="#06359b"
      opacity="0.95"
    />
    <path
      d="M7 47c7-10 21-16 39-15 13 1 23 4 35 9-10 2-21 6-33 11-15 7-26 16-38 26-7-7-8-20-3-31Z"
      fill="url(#swooshLight)"
    />
    <path
      d="M9 52c8 6 20 7 34 4 13-3 25-9 40-19-10 12-21 23-39 31-13 6-23 8-31 6-5-5-6-13-4-22Z"
      fill="#4faaff"
      opacity="0.95"
    />
    <path
      d="M13 34c10-4 24-4 37 2-11-1-23 1-34 6-7 4-11 8-14 13-1-8 2-16 11-21Z"
      fill="#ffffff"
      opacity="0.72"
    />
  </g>
</svg>
